PathFileType	4	(X/Y/Z)	12_2_90_p0_0-288_filt_butterworth.trc
DataRate	CameraRate	NumFrames	NumMarkers	Units	OrigDataRate	OrigDataStartFrame	OrigNumFrames
59.0	59.0	5	27	m	59.0	108	288
Frame#	Time	RHip			RKnee			RAnkle			RBigToe			RSmallToe			RHeel			LHip			LKnee			LAnkle			LBigToe			LSmallToe			LHeel			Neck			Head			Nose			RShoulder			RElbow			RWrist			RThumb			RIndex			RPinky			LShoulder			LElbow			LWrist			LThumb			LIndex			LPinky			
		X1	Y1	Z1	X2	Y2	Z2	X3	Y3	Z3	X4	Y4	Z4	X5	Y5	Z5	X6	Y6	Z6	X7	Y7	Z7	X8	Y8	Z8	X9	Y9	Z9	X10	Y10	Z10	X11	Y11	Z11	X12	Y12	Z12	X13	Y13	Z13	X14	Y14	Z14	X15	Y15	Z15	X16	Y16	Z16	X17	Y17	Z17	X18	Y18	Z18	X19	Y19	Z19	X20	Y20	Z20	X21	Y21	Z21	X22	Y22	Z22	X23	Y23	Z23	X24	Y24	Z24	X25	Y25	Z25	X26	Y26	Z26	X27	Y27	Z27	
108	1.8305084745762712	0.42701507916172154	0.9662408845818148	0.45741455832034206	0.46609161846513497	0.5340516654074429	0.5098131628100602	0.5060538319111053	0.12271792332130102	0.5658055374307085	0.47651129146036353	0.12074593461683535	0.36926589277061667	0.5421416012886	0.12119439269271162	0.4135012740834283	0.48002082125737033	0.0425401019298599	0.6375223809663435	0.23454792611871228	0.940577988912831	0.47520282455903695	0.26609944859069057	0.5080527159155996	0.5082473532479566	0.30771797487722663	0.11732007572996839	0.5484182822363287	0.3161255850999721	0.11039860463236617	0.36926798632259256	0.25223151596665205	0.12089182269578455	0.4003060333020813	0.3284280914164831	0.06071356844674925	0.5916984724299584	0.3117137163527075	1.5141938532144343	0.45643429381431333	0.3110669493432189	1.768269996848112	0.42881018793103676	0.3043897618765819	1.6420949675537988	0.3172943075200034	0.4554122777369404	1.437953209972967	0.4629485281367133	0.5247832339132341	1.2538901584438678	0.3313402777191753	0.3670439622683944	1.2387278493279952	0.1262310591159779	0.27806092090821927	1.2294206436393984	0.08927731831293997	0.28468288699761085	1.2134608012154935	0.07923862696595423	0.31579618784214913	1.1687259646993347	0.10846688196599044	0.16104339427202685	1.4242833219081101	0.4949149548241426	0.12194599773242731	1.188081876762138	0.5371118372633746	0.18768567379686493	1.1606655937106773	0.30790439250992785	0.24264658237982212	1.191920532938233	0.1908653298085468	0.23802417181162933	1.1660276873107223	0.1818749623827773	0.23159833675283922	1.1004340528991419	0.24534219974689822	
109	1.847457627118644	0.42697228819287353	0.9654037364931551	0.45777527988575495	0.4664436572054048	0.534247057341472	0.5101788690579205	0.5060187383784869	0.12237107253691001	0.5658606719872724	0.47651666067918874	0.12071688815651409	0.36934995727031517	0.5420785006281827	0.1212045463923434	0.41338440112877606	0.4799855114219895	0.04260435537815453	0.6375331441263421	0.23509245260270756	0.9410447462800953	0.4738958194118188	0.26600800202624725	0.508094932174537	0.5081532439347964	0.30771047995077017	0.11811058030552986	0.5484598902599341	0.3161200092342552	0.11042552209689742	0.3692740849101392	0.2521739844423251	0.12131037720720741	0.40044100045007597	0.3282775342540318	0.061381956285646105	0.5915657336584482	0.3116146374760271	1.5141372405415685	0.4564755256663424	0.3109992350333602	1.7687955658594887	0.42886363995330723	0.3045527994648077	1.6420674053562014	0.3173590844486186	0.4559727896539469	1.4383823927486026	0.46030119604474123	0.5215178507848346	1.2543592010251299	0.33720802262494487	0.3740635793581863	1.2447876955207566	0.114043104866592	0.286714234459736	1.2392804474073316	0.06781669842552844	0.29164295286107134	1.2259596101470431	0.056082935566336936	0.32384229639240386	1.1796863568344307	0.08722332504260713	0.16102089088869925	1.42499138902281	0.49528161462207543	0.12297376594780801	1.189509103851165	0.533884939431831	0.1860601403825023	1.1616251985059798	0.307029078505493	0.241471171155525	1.1924843005719081	0.1917503535007468	0.23594478702110694	1.1696642213269643	0.17504901981542853	0.22859576073285637	1.1011848663169648	0.24255118195165845	
110	1.8644067796610169	0.42697362906046615	0.9646896463631777	0.4579142505305087	0.46676512899707817	0.5345016585852902	0.5104775676979044	0.5059828264106844	0.12203052696438448	0.5659114934196762	0.4765319291258283	0.12069400488336607	0.3694131133766212	0.5420756072222916	0.12118053259882933	0.4133953199596433	0.4799323070735595	0.04271830106854384	0.6375091873581559	0.23559895470626482	0.9415380038976219	0.4726715000872463	0.2659627137699489	0.5081355912033361	0.5080850427658539	0.3078780290905448	0.11911396964925765	0.5478586893645303	0.31619641128508014	0.1104702733350445	0.3693508542975156	0.2521568518739435	0.12148213546541861	0.40049552145942946	0.32811620686479415	0.061879858075100574	0.5913766365548623	0.3115934692673187	1.5140557545343658	0.4565144838861841	0.3108807998532186	1.7694469352329534	0.42888662056689625	0.30488020649154246	1.6420730389062836	0.3174401856949459	0.45647122722381855	1.4388584206778672	0.45811222328026613	0.5197847318106709	1.256118410743904	0.3426625012684495	0.38079463483504605	1.2511628144605507	0.1076313300495338	0.2954242382866409	1.2486085622168859	0.05092884703541632	0.2980882747426235	1.2382541358617978	0.039021451054664535	0.3320213266707206	1.1896045650335272	0.07035078709550349	0.1611702852219922	1.4257427983649544	0.49643227619745645	0.12396649233375637	1.1912469515087534	0.5311150277244112	0.18486848114988885	1.1627592272977936	0.3069854912727694	0.240261505386785	1.1931659370075876	0.19294046644868024	0.23418274705522985	1.1735651185848066	0.16961530917390247	0.22509968275472397	1.1029448131550552	0.23699258610026017	
111	1.88135593220339	0.42703594654139343	0.964210954259788	0.4577580648704586	0.4670233353475407	0.5348551110235964	0.5107014063272819	0.5059495079183775	0.12171585647617472	0.5659541749610567	0.4765536790311039	0.12067637645664173	0.36945501899650235	0.5420949142982738	0.12114363379839242	0.41343999915925334	0.47985217051331225	0.042897551958788	0.6374396307702002	0.23608534152363075	0.9421074945499807	0.4714740901681135	0.26597164135625373	0.5081771968455515	0.5080469339702987	0.3081948175281217	0.12028782830814258	0.5467206262915697	0.3163731528147522	0.11055247909575999	0.3694776059956857	0.25215688343401643	0.12148912171430748	0.40051396856738564	0.32796880999640304	0.062261767130677895	0.5911652748678375	0.31162655779662357	1.5139962724225595	0.4565400463872208	0.31070306931937314	1.7701315742974832	0.4288753925264268	0.3053481963478863	1.64212475837788	0.31754213665256215	0.4569732557311751	1.4394413678680953	0.4567594586995741	0.5192407236962141	1.2587677035912765	0.3476752664600807	0.3864965475316553	1.257336065747888	0.10616565935005129	0.3038309512900813	1.2571332482925321	0.03835860982459684	0.30401106008683343	1.248980117384405	0.027842626427418665	0.33940427308934795	1.1977328651673196	0.05776107466337248	0.16152610067150963	1.4262939394657026	0.49829152482179	0.12474540502613723	1.1929198742245606	0.5293724450247683	0.1841737790076452	1.1638661647440496	0.30809106488203275	0.2389984160733098	1.1938003730785007	0.19428771423951932	0.2328775598016517	1.1770148049769347	0.1666175322938695	0.22166273237923806	1.1050860365590753	0.231445512135106	
112	1.8983050847457628	0.42714604323234096	0.9640394420750024	0.4573477109228876	0.4672122576254321	0.5353110314544948	0.5108594307063761	0.5059255693409028	0.12147953002894828	0.565982802455468	0.47657577201217693	0.12066179063962729	0.3694813749253078	0.5421157213448116	0.12110732052598935	0.41346951796626513	0.4797489968579661	0.04312887524439242	0.6373371760031008	0.23656568891925106	0.9427737960403605	0.47028377676126454	0.2660103843574746	0.5082300772047254	0.508025605196369	0.3085815002757315	0.12157590759356687	0.545334425110331	0.3166047227672726	0.11062894974201719	0.3695905728546939	0.25216596923777485	0.12138423834882366	0.4005110435088556	0.3278577034288011	0.06257336283867299	0.590962053007408	0.31167964930059444	1.5140844607311446	0.4565491383656894	0.31049453794802057	1.770772768016076	0.4288722516859307	0.30594773563924993	1.6422059949039376	0.3176807044150253	0.457526226851129	1.4401076279241594	0.45637664084458757	0.5196618599283487	1.2617661760644991	0.35205401563382555	0.39085650938860184	1.2630206438113194	0.10744092068219775	0.3114678776874222	1.2651333628859465	0.02940298466055706	0.3091893333837342	1.2575497014018215	0.0216143481888062	0.344921380592355	1.2043117698693473	0.04951158001241736	0.1620495408773068	1.4264954963113363	0.5005847777921265	0.1252258710782268	1.1942526222866592	0.5289960827793793	0.18397224704761972	1.1647778683689947	0.3102162527584119	0.2377688352053996	1.194364346801059	0.19556950803545348	0.2319662847064336	1.1798057230152363	0.16601019272452833	0.2187488738273603	1.1069129815659409	0.22832803511076982	
